<?xml version="1.0" encoding="utf-8"?>
<!-- Generator: Adobe Illustrator 19.0.0, SVG Export Plug-In . SVG Version: 6.00 Build 0)  -->
<svg version="1.1" xmlns="http://www.w3.org/2000/svg" xmlns:xlink="http://www.w3.org/1999/xlink" x="0px" y="0px"
	 viewBox="0 0 1920 514.3" style="enable-background:new 0 0 1920 514.3;" xml:space="preserve">
<style type="text/css">
	.st0{fill:#4B6821;}
	.st1{fill:#C2F48C;}
	.st2{fill:#6A9335;}
	.st3{fill:#7FAA46;}
	.st4{fill:#B6245B;}
	.st5{fill:#547028;}
</style>
<g id="bg">
	<path id="XMLID_88_" class="st0" d="M1010,137.8c-176.7,0-320,145-320,323.9v554.7h640V461.7C1330,282.8,1186.7,137.8,1010,137.8z"
		/>
	<path id="XMLID_70_" class="st1" d="M320,129.8c-176.7,0-320,145-320,323.9v554.7h640V453.7C640,274.8,496.7,129.8,320,129.8z"/>
	<path id="XMLID_69_" class="st1" d="M960,226.5c-176.7,0-320,129-320,288.2v493.6h640V514.7C1280,355.5,1136.7,226.5,960,226.5z"/>
	<path id="XMLID_68_" class="st1" d="M1600,129.8c-176.7,0-320,145-320,323.9v554.7h640V453.7C1920,274.8,1776.7,129.8,1600,129.8z"
		/>
	<path id="XMLID_85_" class="st2" d="M1273,185.8c-176.7,0-320,145-320,323.9v554.7h640V509.7C1593,330.8,1449.7,185.8,1273,185.8z"
		/>
	<path id="XMLID_86_" class="st2" d="M640,177.8c-176.7,0-320,145-320,323.9v554.7h640V501.7C960,322.8,816.7,177.8,640,177.8z"/>
	<path id="XMLID_87_" class="st2" d="M658,116.8c-176.7,0-320,145-320,323.9v554.7h640V440.7C978,261.8,834.7,116.8,658,116.8z"/>
</g>
<g id="hills">
	<path id="XMLID_17_" class="st1" d="M320,129.8c-176.7,0-320,145-320,323.9v554.7h640V453.7C640,274.8,496.7,129.8,320,129.8z"/>
	<path id="XMLID_18_" class="st1" d="M960,226.5c-176.7,0-320,129-320,288.2v493.6h640V514.7C1280,355.5,1136.7,226.5,960,226.5z"/>
	<path id="XMLID_21_" class="st1" d="M1600,129.8c-176.7,0-320,145-320,323.9v554.7h640V453.7C1920,274.8,1776.7,129.8,1600,129.8z"
		/>
</g>
<g id="flower">
	<path id="XMLID_14_" class="st3" d="M320.4,234.8L320.4,234.8c-4.2,0-7.6-3.4-7.6-7.6V69.5c0-4.2,3.4-7.6,7.6-7.6h0
		c4.2,0,7.6,3.4,7.6,7.6v157.6C328,231.4,324.6,234.8,320.4,234.8z"/>
	<path id="XMLID_15_" class="st3" d="M325.4,185.8L325.4,185.8L325.4,185.8c0-34,27.5-61.5,61.5-61.5h0v0
		C386.9,158.3,359.3,185.8,325.4,185.8z"/>
	<path id="XMLID_19_" class="st3" d="M315.4,148.3L315.4,148.3L315.4,148.3c0-34-27.5-61.5-61.5-61.5h0v0
		C253.9,120.8,281.4,148.3,315.4,148.3z"/>
	<path id="XMLID_16_" class="st4" d="M356.5,45.2c0,16.4-16,29.7-35.8,29.7s-36-15-36-31.3s16.3-28,36-28S356.5,28.8,356.5,45.2z"/>
	<g id="XMLID_20_">
		<path id="XMLID_42_" class="st4" d="M304.5,28.6c-3.6-6.3-7.2-12.6-10.8-19c-6.6,10.3-10.2,23.1-8.8,34.7L304.5,28.6z"/>
	</g>
	<g id="XMLID_23_">
		<path id="XMLID_40_" class="st4" d="M338.1,28.6c3.6-6.3,7.2-12.6,10.8-19c6.6,10.3,8.7,24.7,7.3,36.3L338.1,28.6z"/>
	</g>
	<g id="XMLID_31_">
		<path id="XMLID_38_" class="st4" d="M321.7,0c-9.3,5.3-19.8,15.9-24.6,24.3l48,1.4c-2.4-4.1-5.2-9.6-8.3-12.9
			c-4.3-4.6-8.3-8.5-13.8-12.1"/>
	</g>
	<g id="XMLID_22_">
		<path id="XMLID_35_" class="st5" d="M261.8,95.2c0,0,2.8,2.5,7.1,6.2c2.1,1.9,4.6,4,7.2,6.4c2.6,2.3,5.4,4.9,8.2,7.4
			c1.4,1.2,2.8,2.5,4.2,3.7c1.4,1.2,2.8,2.4,4,3.6c1.3,1.2,2.4,2.4,3.5,3.7c0.5,0.6,1.1,1.2,1.6,1.7c0.5,0.6,1,1.1,1.4,1.7
			c0.9,1.1,1.7,2.1,2.4,3c0.7,0.9,1.3,1.7,1.8,2.4c1,1.4,1.5,2.2,1.5,2.2l-0.3,0.3c0,0-0.8-0.5-2.2-1.4c-0.7-0.5-1.5-1.1-2.4-1.7
			c-0.9-0.7-2-1.5-3-2.4c-0.5-0.4-1.1-0.9-1.7-1.4c-0.6-0.5-1.2-1-1.8-1.5c-1.2-1-2.5-2.2-3.7-3.4c-1.2-1.2-2.5-2.6-3.7-3.9
			c-1.3-1.4-2.5-2.7-3.8-4.1c-2.6-2.7-5.2-5.4-7.6-8c-2.4-2.6-4.6-5-6.5-7.1c-3.8-4.1-6.3-6.9-6.3-6.9L261.8,95.2z"/>
	</g>
	<g id="XMLID_26_">
		<path id="XMLID_33_" class="st5" d="M377.7,131.5c0,0-2.5,2.8-6.3,6.9c-1.9,2.1-4.1,4.5-6.5,7.1c-2.4,2.6-5,5.3-7.6,8
			c-1.3,1.4-2.6,2.8-3.8,4.1c-1.2,1.4-2.5,2.7-3.7,3.9c-1.3,1.2-2.5,2.4-3.7,3.4c-0.6,0.5-1.2,1-1.8,1.5c-0.6,0.5-1.2,0.9-1.7,1.4
			c-1.1,0.9-2.1,1.7-3,2.4c-0.9,0.7-1.7,1.3-2.4,1.7c-1.4,0.9-2.2,1.4-2.2,1.4l-0.3-0.3c0,0,0.5-0.8,1.5-2.2
			c0.5-0.7,1.1-1.5,1.8-2.4c0.7-0.9,1.5-1.9,2.4-3c0.5-0.5,0.9-1.1,1.4-1.7c0.5-0.6,1-1.1,1.6-1.7c1.1-1.2,2.3-2.4,3.5-3.7
			c1.3-1.2,2.6-2.4,4-3.6c1.4-1.2,2.8-2.5,4.2-3.7c2.8-2.5,5.5-5.1,8.2-7.4c2.6-2.4,5.1-4.5,7.2-6.4c4.2-3.7,7.1-6.2,7.1-6.2
			L377.7,131.5z"/>
	</g>
	<path id="XMLID_55_" class="st3" d="M1600.4,234.8L1600.4,234.8c4.2,0,7.6-3.4,7.6-7.6V69.5c0-4.2-3.4-7.6-7.6-7.6l0,0
		c-4.2,0-7.6,3.4-7.6,7.6v157.6C1592.7,231.4,1596.1,234.8,1600.4,234.8z"/>
	<path id="XMLID_54_" class="st3" d="M1595.4,185.8L1595.4,185.8L1595.4,185.8c0-34-27.5-61.5-61.5-61.5l0,0v0
		C1533.9,158.3,1561.4,185.8,1595.4,185.8z"/>
	<path id="XMLID_53_" class="st3" d="M1605.4,148.3L1605.4,148.3L1605.4,148.3c0-34,27.5-61.5,61.5-61.5l0,0v0
		C1666.9,120.8,1639.3,148.3,1605.4,148.3z"/>
	<path id="XMLID_52_" class="st4" d="M1564.2,45.2c0,16.4,16,29.7,35.8,29.7s36-15,36-31.3s-16.3-28-36-28S1564.2,28.8,1564.2,45.2z
		"/>
	<g id="XMLID_49_">
		<path id="XMLID_61_" class="st4" d="M1616.2,28.6c3.6-6.3,7.2-12.6,10.8-19c6.6,10.3,10.2,23.1,8.8,34.7L1616.2,28.6z"/>
	</g>
	<g id="XMLID_46_">
		<path id="XMLID_59_" class="st4" d="M1582.6,28.6c-3.6-6.3-7.2-12.6-10.8-19c-6.6,10.3-8.7,24.7-7.3,36.3L1582.6,28.6z"/>
	</g>
	<g id="XMLID_43_">
		<path id="XMLID_57_" class="st4" d="M1599,0c9.3,5.3,19.8,15.9,24.6,24.3l-48,1.4c2.4-4.1,5.2-9.6,8.3-12.9
			c4.3-4.6,8.3-8.5,13.8-12.1"/>
	</g>
	<g id="XMLID_29_">
		<path id="XMLID_50_" class="st5" d="M1659.2,95.5c0,0-2.5,2.8-6.3,6.9c-1.9,2.1-4.1,4.5-6.5,7.1c-2.4,2.6-5,5.3-7.6,8
			c-1.3,1.4-2.6,2.8-3.8,4.1c-1.2,1.4-2.5,2.7-3.7,3.9c-1.3,1.2-2.5,2.4-3.7,3.4c-0.6,0.5-1.2,1-1.8,1.5c-0.6,0.5-1.2,0.9-1.7,1.4
			c-1.1,0.9-2.1,1.7-3,2.4c-0.9,0.7-1.7,1.3-2.4,1.7c-1.4,0.9-2.2,1.4-2.2,1.4l-0.3-0.3c0,0,0.5-0.8,1.5-2.2
			c0.5-0.7,1.1-1.5,1.8-2.4c0.7-0.9,1.5-1.9,2.4-3c0.5-0.5,0.9-1.1,1.4-1.7c0.5-0.6,1-1.1,1.6-1.7c1.1-1.2,2.3-2.4,3.5-3.7
			c1.3-1.2,2.6-2.4,4-3.6c1.4-1.2,2.8-2.5,4.2-3.7c2.8-2.5,5.5-5.1,8.2-7.4c2.6-2.4,5.1-4.5,7.2-6.4c4.2-3.7,7.1-6.2,7.1-6.2
			L1659.2,95.5z"/>
	</g>
	<g id="XMLID_25_">
		<path id="XMLID_47_" class="st5" d="M1543.3,131.2c0,0,2.8,2.5,7.1,6.2c2.1,1.9,4.6,4,7.2,6.4c2.6,2.3,5.4,4.9,8.2,7.4
			c1.4,1.2,2.8,2.5,4.2,3.7c1.4,1.2,2.8,2.4,4,3.6c1.3,1.2,2.4,2.4,3.5,3.7c0.5,0.6,1.1,1.2,1.6,1.7c0.5,0.6,1,1.1,1.4,1.7
			c0.9,1.1,1.7,2.1,2.4,3c0.7,0.9,1.3,1.7,1.8,2.4c1,1.4,1.5,2.2,1.5,2.2l-0.3,0.3c0,0-0.8-0.5-2.2-1.4c-0.7-0.5-1.5-1.1-2.4-1.7
			c-0.9-0.7-2-1.5-3-2.4c-0.5-0.4-1.1-0.9-1.7-1.4c-0.6-0.5-1.2-1-1.8-1.5c-1.2-1-2.5-2.2-3.7-3.4c-1.2-1.2-2.5-2.6-3.7-3.9
			c-1.3-1.4-2.5-2.7-3.8-4.1c-2.6-2.7-5.2-5.4-7.6-8c-2.4-2.6-4.6-5-6.5-7.1c-3.8-4.1-6.3-6.9-6.3-6.9L1543.3,131.2z"/>
	</g>
</g>
</svg>
